<svg width="24" height="25" viewBox="0 0 24 25" fill="none" xmlns="http://www.w3.org/2000/svg">
<path d="M14.857 17.582C16.7202 17.3614 18.5509 16.9217 20.311 16.272C18.8204 14.6208 17.9967 12.4745 18 10.25V9.5C18 7.9087 17.3678 6.38258 16.2426 5.25736C15.1174 4.13214 13.5913 3.5 12 3.5C10.4087 3.5 8.88257 4.13214 7.75735 5.25736C6.63213 6.38258 5.99999 7.9087 5.99999 9.5V10.25C6.00301 12.4746 5.17898 14.621 3.68799 16.272C5.42099 16.912 7.24799 17.357 9.14299 17.582M14.857 17.582C12.959 17.8071 11.041 17.8071 9.14299 17.582M14.857 17.582C15.0011 18.0319 15.0369 18.5094 14.9616 18.9757C14.8862 19.442 14.7018 19.884 14.4234 20.2656C14.1449 20.6472 13.7803 20.9576 13.3592 21.1716C12.9381 21.3856 12.4724 21.4972 12 21.4972C11.5276 21.4972 11.0619 21.3856 10.6408 21.1716C10.2197 20.9576 9.85506 20.6472 9.57661 20.2656C9.29816 19.884 9.11375 19.442 9.0384 18.9757C8.96305 18.5094 8.99889 18.0319 9.14299 17.582" stroke="white" stroke-width="1.5" stroke-linecap="round" stroke-linejoin="round"/>
<circle cx="16" cy="5" r="3" fill="#FF7779"/>
</svg>
