<svg width="11" height="16" viewBox="0 0 11 16" fill="none" xmlns="http://www.w3.org/2000/svg">
<path fill-rule="evenodd" clip-rule="evenodd" d="M0.25 1.25C0.25 1.05109 0.329018 0.860322 0.46967 0.71967C0.610322 0.579018 0.801088 0.5 1 0.5H2.5C2.69891 0.5 2.88968 0.579018 3.03033 0.71967C3.17098 0.860322 3.25 1.05109 3.25 1.25V14.75C3.25 14.9489 3.17098 15.1397 3.03033 15.2803C2.88968 15.421 2.69891 15.5 2.5 15.5H1C0.801088 15.5 0.610322 15.421 0.46967 15.2803C0.329018 15.1397 0.25 14.9489 0.25 14.75V1.25ZM7.75 1.25C7.75 1.05109 7.82902 0.860322 7.96967 0.71967C8.11032 0.579018 8.30109 0.5 8.5 0.5H10C10.1989 0.5 10.3897 0.579018 10.5303 0.71967C10.671 0.860322 10.75 1.05109 10.75 1.25V14.75C10.75 14.9489 10.671 15.1397 10.5303 15.2803C10.3897 15.421 10.1989 15.5 10 15.5H8.5C8.30109 15.5 8.11032 15.421 7.96967 15.2803C7.82902 15.1397 7.75 14.9489 7.75 14.75V1.25Z" fill="white"/>
</svg>
